# xmcd
#
# Track frame offsets:
#	150
#	14738
#	27818
#	41251
#	55088
#	70097
#	85746
#	105255
#	123393
#	135005
#	149274
#	164734
#	182290
#	199727
#	214268
#	229795
#	244551
#	257829
#	270120
#	289144
#
# Disc length: 3993 seconds
#
# Revision: 1
# Processed by: cddbd v1.5.2PL0 Copyright (c) Steve Scherf et al.
# Submitted via: audiograbber 1.83.01
#
DISCID=0a0f9714
DTITLE=Martin Pyrker - Boogie Woogie Storm
DYEAR=2009
DGENRE=
TTITLE0=Sabine's Jive
TTITLE1=Boogie Woogie Storm
TTITLE2=Black Key Roller
TTITLE3=How Long Blues
TTITLE4=Knockin' Myself Out
TTITLE5=Blues Whistle
TTITLE6=Honky Tonk Train Blues
TTITLE7=I Got A Mind To Ramble
TTITLE8=My Man Is Gone
TTITLE9=He's Dynamite
TTITLE10=Grooving The Blues
TTITLE11=Mostar Blues
TTITLE12=My Mellow Man
TTITLE13=You Can't Take It With You
TTITLE14=George's Texas Stomp
TTITLE15=V-Disc Stomp
TTITLE16=It's Good Like That
TTITLE17=Cry On Daddy
TTITLE18=Pallet On The Floor
TTITLE19=At The Window
EXTD=
EXTT0=
EXTT1=
EXTT2=
EXTT3=
EXTT4=
EXTT5=
EXTT6=
EXTT7=
EXTT8=
EXTT9=
EXTT10=
EXTT11=
EXTT12=
EXTT13=
EXTT14=
EXTT15=
EXTT16=
EXTT17=
EXTT18=
EXTT19=
PLAYORDER=
